<?xml version="1.0" encoding="UTF-8"?>
<svg xmlns="http://www.w3.org/2000/svg" xmlns:xlink="http://www.w3.org/1999/xlink" viewBox="0 0 429.41 289">
  <defs>
    <style>
      .cls-1 {
        fill: #63b8f7;
      }

      .cls-2, .cls-3 {
        fill: #fff;
      }

      .cls-4, .cls-5 {
        fill: #ffa683;
      }

      .cls-6 {
        fill: #09256b;
      }

      .cls-7 {
        fill: #1d88d8;
      }

      .cls-8 {
        fill: #147ac6;
      }

      .cls-9 {
        fill: #7dc4f9;
      }

      .cls-10 {
        fill: #ade4f2;
        opacity: .48;
      }

      .cls-10, .cls-11, .cls-12 {
        mix-blend-mode: multiply;
      }

      .cls-13 {
        isolation: isolate;
      }

      .cls-14, .cls-15 {
        fill: #379cf7;
      }

      .cls-14, .cls-16, .cls-17, .cls-5 {
        fill-rule: evenodd;
      }

      .cls-18 {
        fill: #173acc;
      }

      .cls-19 {
        fill: #abd0dd;
      }

      .cls-20 {
        fill: url(#linear-gradient);
      }

      .cls-20, .cls-3, .cls-21 {
        mix-blend-mode: overlay;
      }

      .cls-3 {
        opacity: .05;
      }

      .cls-11 {
        opacity: .4;
      }

      .cls-11, .cls-12, .cls-17, .cls-22 {
        fill: #092b96;
      }

      .cls-12 {
        opacity: .39;
      }

      .cls-23 {
        fill: #d8e8ef;
      }

      .cls-21 {
        fill: url(#linear-gradient-2);
      }

      .cls-16, .cls-24 {
        fill: #ef7f5e;
      }

      .cls-25 {
        fill: #2b56e0;
      }

      .cls-26 {
        fill: #ccf2ff;
      }

      .cls-27 {
        fill: #052575;
      }

      .cls-28 {
        fill: #1574bc;
      }
    </style>
    <linearGradient id="linear-gradient" x1="264.03" y1="80.82" x2="310.07" y2="38.1" gradientTransform="translate(53.31 -123.92) rotate(28.34)" gradientUnits="userSpaceOnUse">
      <stop offset="0" stop-color="#fff"/>
      <stop offset="1" stop-color="#fff" stop-opacity="0"/>
    </linearGradient>
    <linearGradient id="linear-gradient-2" x1="274.88" y1="92.51" x2="320.92" y2="49.79" xlink:href="#linear-gradient"/>
  </defs>
  <g class="cls-13">
    <g id="Layer_2" data-name="Layer 2">
      <g id="OBJECTS">
        <g>
          <g>
            <path class="cls-26" d="m78.37,261.9h276.07c27.05,0,50.5-19.66,54.18-46.45.09-.63.16-1.26.23-1.9,1.2-11.64-1.17-23.15-10.63-32.01-30.25-28.36,11.98-64.92,5.67-90.13s-28.36-10.71-69.33-50.42c-40.97-39.71-34.57-61.82-105.78-13.13-57.15,39.08-125.64-4.41-159.67,12.61-34.04,17.02.1,67.34-41.49,121.54-26.24,34.2-6.58,65.13,11.51,83.31,5.96,5.99,13.1,10.53,20.87,13.42,5.87,2.18,12.12,3.17,18.39,3.17Z"/>
            <path class="cls-10" d="m403.89,91.41c-6.3-25.21-28.36-10.71-69.33-50.42-27.89-27.03-33.84-45.9-57.26-39.84,18.7,6.54,24.02,12.46,29.21,24.61,29.83,69.75-31.93,139.92,10.08,171.44,23.14,17.35-24.95,42.74-68.77,64.71h106.62c27.05,0,50.5-19.66,54.18-46.45.09-.63.16-1.26.23-1.9,1.2-11.64-1.17-23.15-10.63-32.01-30.25-28.36,11.98-64.92,5.67-90.13Z"/>
          </g>
          <g>
            <g>
              <g>
                <polygon class="cls-15" points="165.05 32.86 113.21 21.66 132.48 59.2 145.18 49.15 150.23 57.87 151.85 42.15 165.05 32.86"/>
                <polygon class="cls-22" points="150.4 41.39 151.85 42.15 150.23 57.87 145.18 49.15 113.21 21.66 150.4 41.39"/>
              </g>
              <polygon class="cls-28" points="139.5 53.64 150.23 57.87 145.18 49.15 139.5 53.64"/>
            </g>
            <g>
              <path class="cls-22" d="m153.76,59.67c-.47-.45-.91-.93-1.33-1.41l.36-.32c.41.47.85.94,1.31,1.39l-.34.34Z"/>
              <path class="cls-22" d="m290.03,138.78c-1.27-.08-2.55-.19-3.82-.33l.05-.48c1.26.14,2.54.25,3.8.33l-.03.48Zm-7.62-.84c-1.25-.2-2.52-.44-3.77-.7l.1-.47c1.24.26,2.5.5,3.75.7l-.08.48Zm-7.5-1.59c-1.24-.32-2.48-.68-3.69-1.06l.14-.46c1.2.38,2.43.73,3.66,1.05l-.12.47Zm-7.32-2.29c-1.19-.44-2.39-.91-3.57-1.4l.19-.44c1.17.49,2.36.96,3.55,1.39l-.17.45Zm-7.07-2.96c-1.16-.55-2.31-1.13-3.43-1.72l.23-.43c1.11.59,2.26,1.17,3.41,1.71l-.21.44Zm-6.77-3.6c-1.1-.65-2.19-1.33-3.25-2.03l.26-.4c1.06.69,2.14,1.37,3.24,2.01l-.24.42Zm-6.41-4.2c-1.03-.74-2.06-1.52-3.05-2.32l.3-.38c.99.79,2.01,1.56,3.04,2.3l-.28.39Zm-6-4.77c-.96-.84-1.91-1.71-2.83-2.59l.34-.35c.91.88,1.85,1.74,2.81,2.58l-.32.36Zm-5.52-5.32c-.87-.92-1.74-1.88-2.56-2.85l.37-.31c.82.96,1.68,1.92,2.55,2.83l-.35.33Zm-4.99-5.83c-.78-1.01-1.55-2.05-2.27-3.09l.4-.28c.72,1.03,1.48,2.06,2.26,3.07l-.38.29Zm-4.38-6.3c-.16-.26-.32-.52-.48-.78-.52-.85-1.01-1.7-1.46-2.53l.42-.23c.45.82.94,1.66,1.45,2.51.16.26.32.52.48.78l-.41.25Zm-3.69-6.72c-.56-1.18-1.07-2.37-1.52-3.53l.45-.17c.44,1.15.95,2.33,1.5,3.5l-.44.21Zm-2.75-7.17c-.36-1.25-.67-2.51-.9-3.74l.47-.09c.23,1.22.53,2.46.89,3.69l-.46.13Zm2.77-7l-.02-.48c1.37-.05,2.62-.22,3.73-.51l.12.47c-1.14.29-2.43.47-3.83.52Zm-3.85-.12c-1.31-.12-2.59-.32-3.81-.6l.11-.47c1.08.25,2.21.43,3.37.55-.04-.54-.05-1.08-.05-1.61,0-.75.04-1.48.11-2.18l.48.05c-.07.68-.11,1.4-.11,2.13,0,.54.02,1.09.06,1.65h-.12s-.04.48-.04.48Zm-7.49-1.75c-1.23-.5-2.38-1.1-3.43-1.78l.26-.4c1.02.67,2.15,1.25,3.34,1.74l-.18.45Zm18.73-.22l-.27-.4c.09-.06.19-.13.28-.2.89-.65,1.64-1.52,2.19-2.52l.42.23c-.58,1.06-1.39,1.99-2.33,2.68-.1.07-.2.14-.3.21Zm-25.15-4.01c-.87-.88-1.69-1.88-2.45-2.98l.4-.27c.74,1.08,1.55,2.06,2.39,2.92l-.34.34Zm14.97-1.93l-.45-.17c.49-1.28,1.16-2.4,2.01-3.33l.36.32c-.8.89-1.45,1.96-1.92,3.18Zm13.27-.72c-.03-.81-.24-1.57-.61-2.25-.21-.38-.47-.73-.77-1.03l.34-.34c.33.34.61.72.84,1.14.41.75.64,1.58.67,2.46l-.48.02Zm-54.64-3.26v-.48c1.21,0,2.49-.05,3.8-.13l.03.48c-1.32.08-2.61.13-3.83.13Zm-3.84-.12c-1.31-.09-2.59-.23-3.82-.42l.07-.48c1.21.19,2.49.32,3.78.41l-.03.48Zm25.83-.29c-.55-1.08-1.06-2.23-1.57-3.51l.45-.18c.5,1.27,1.01,2.4,1.55,3.47l-.43.22Zm-14.34-.06l-.05-.48c.96-.1,1.95-.23,3.02-.37l.77-.11.07.48-.77.11c-1.07.15-2.07.27-3.03.37Zm38.69-.74l-.16-.46c1.25-.43,2.62-.57,3.88-.39l-.07.48c-1.18-.17-2.48-.03-3.66.37Zm-57.77-.1c-1.25-.32-2.49-.72-3.67-1.16l.17-.45c1.16.44,2.38.83,3.62,1.15l-.12.47Zm26.67-.29l-.1-.47c1.34-.27,2.55-.57,3.69-.92l.14.46c-1.15.35-2.37.66-3.73.93Zm7.34-2.3l-.2-.44c1.18-.55,2.28-1.18,3.27-1.88l.28.39c-1.01.72-2.14,1.37-3.35,1.93Zm-41.18-.16c-1.16-.61-2.26-1.29-3.28-2.02l.28-.39c1,.72,2.09,1.39,3.22,1.99l-.23.43Zm37.75-3.48c-.43-1.36-.74-2.58-.95-3.73l.47-.09c.2,1.13.51,2.33.93,3.67l-.46.15Zm9.65-.88l-.37-.31c.82-.96,1.52-2.01,2.07-3.13l.43.21c-.57,1.15-1.29,2.24-2.13,3.23Zm-10.41-6.69l-.48-.02c.02-.58.08-1.16.16-1.71.11-.71.3-1.42.55-2.11l.45.16c-.24.66-.41,1.34-.52,2.02-.08.54-.14,1.09-.16,1.65Zm13.77-.22l-.47-.08c.12-.66.18-1.33.18-1.97,0-.59-.05-1.18-.15-1.75l.47-.08c.11.59.16,1.21.16,1.83,0,.67-.06,1.36-.18,2.05Zm-11.24-6.67l-.37-.31c.9-1.06,1.95-1.85,3.12-2.34l.19.44c-1.1.47-2.09,1.21-2.94,2.21Zm9.43-.57c-.52-.76-1.14-1.33-1.82-1.68-.33-.17-.69-.3-1.07-.38l.1-.47c.42.09.82.23,1.19.42.76.39,1.43,1.01,2,1.84l-.4.27Z"/>
              <path class="cls-22" d="m294.59,138.92c-.21,0-.41,0-.61,0v-.48c.65,0,1.29,0,1.93,0v.48c-.43,0-.87.01-1.31.01Z"/>
            </g>
          </g>
          <g>
            <g>
              <g>
                <path class="cls-7" d="m299.02,50.9c-.69-.37-1.39-.71-2.1-1.02,11.58,7.6,15.62,22.92,8.93,35.33-6.7,12.42-21.72,17.46-34.43,11.95.64.43,1.31.82,2,1.19,13.1,7.07,29.46,2.17,36.53-10.94,7.07-13.1,2.17-29.46-10.93-36.52Z"/>
                <path class="cls-15" d="m294.91,48.69c-13.1-7.07-29.46-2.17-36.53,10.93-7.07,13.1-2.17,29.46,10.93,36.53,13.1,7.07,29.46,2.17,36.53-10.93,7.07-13.1,2.17-29.46-10.93-36.53Zm-21.99,40.77c-9.41-5.08-12.93-16.82-7.85-26.23,5.08-9.41,16.82-12.93,26.23-7.85,9.41,5.08,12.93,16.82,7.85,26.23-5.08,9.41-16.82,12.93-26.23,7.85Z"/>
                <path class="cls-15" d="m262.5,61.83c6.69-12.41,21.72-17.46,34.42-11.95-.64-.43-1.32-.82-2.01-1.2-13.1-7.07-29.46-2.17-36.52,10.93-7.07,13.11-2.18,29.46,10.93,36.53.69.37,1.4.72,2.1,1.02-11.58-7.59-15.62-22.92-8.92-35.33Z"/>
                <path class="cls-3" d="m291.02,55.22c-9.5-4.92-21.18-1.2-26.1,8.29-4.92,9.5-1.2,21.18,8.29,26.1,9.5,4.92,21.18,1.2,26.1-8.29,4.92-9.5,1.2-21.18-8.29-26.1Z"/>
                <path class="cls-20" d="m299.13,63.17l-36.3,10.86c-.3-3.48.34-7.08,2.05-10.42l26.81-8.02c3.25,1.84,5.78,4.5,7.44,7.58Z"/>
                <path class="cls-21" d="m299.31,81.32c-.09.18-.19.36-.29.53l-25.86,7.73c-4.48-2.34-7.66-6.18-9.25-10.58l37.04-11.08c1.04,4.36.59,9.1-1.64,13.4Z"/>
              </g>
              <rect class="cls-15" x="253.48" y="90" width="9.73" height="58.94" transform="translate(87.68 -108.32) rotate(28.34)"/>
            </g>
            <g>
              <g>
                <path class="cls-7" d="m385.16,81.65v-5.09c0-1.11-.9-2-2-2h-2.59c-1.22,0-2.28-.8-2.66-1.95-.31-.92-.68-1.82-1.11-2.68-.55-1.09-.36-2.41.5-3.27l1.83-1.83c.78-.78.78-2.05,0-2.84l-3.6-3.6c-.78-.78-2.05-.78-2.84,0l-1.83,1.83c-.86.86-2.18,1.05-3.27.5-.86-.43-1.75-.8-2.68-1.11-1.16-.39-1.95-1.44-1.95-2.66v-2.59c0-1.11-.9-2.01-2-2.01h-5.08c-1.11,0-2,.9-2,2.01v2.59c0,1.22-.8,2.28-1.95,2.66-.92.31-1.82.68-2.68,1.11-1.09.55-2.41.36-3.27-.5l-1.83-1.83c-.78-.78-2.05-.78-2.84,0l-3.6,3.6c-.78.78-.78,2.05,0,2.84l1.83,1.83c.86.86,1.05,2.18.5,3.27-.43.86-.8,1.75-1.11,2.68-.39,1.16-1.44,1.95-2.66,1.95h-2.59c-1.11,0-2,.9-2,2v5.09c0,1.11.9,2.01,2,2.01h2.59c1.22,0,2.28.8,2.66,1.95.31.92.68,1.82,1.11,2.68.55,1.09.36,2.41-.5,3.27l-1.83,1.83c-.78.78-.78,2.05,0,2.84l3.6,3.6c.78.78,2.05.78,2.84,0l1.83-1.83c.86-.86,2.18-1.05,3.27-.5.86.43,1.75.8,2.68,1.11,1.16.39,1.95,1.44,1.95,2.66v2.59c0,1.11.9,2,2,2h5.08c1.11,0,2-.9,2-2v-2.59c0-1.22.8-2.28,1.95-2.66.92-.31,1.82-.68,2.68-1.11,1.09-.55,2.41-.36,3.27.5l1.83,1.83c.78.78,2.05.78,2.84,0l3.6-3.6c.78-.78.78-2.05,0-2.84l-1.83-1.83c-.86-.86-1.05-2.18-.5-3.27.43-.86.8-1.75,1.11-2.68.39-1.16,1.44-1.95,2.66-1.95h2.59c1.11,0,2-.9,2-2.01Zm-26.74,3.6c-3.39,0-6.14-2.75-6.14-6.14s2.75-6.14,6.14-6.14,6.14,2.75,6.14,6.14-2.75,6.14-6.14,6.14Z"/>
                <path class="cls-15" d="m410.15,113.27v-2.88c0-.63-.51-1.13-1.13-1.13h-1.46c-.69,0-1.29-.45-1.51-1.11-.17-.52-.38-1.03-.63-1.51-.31-.62-.21-1.36.28-1.85l1.04-1.04c.44-.44.44-1.16,0-1.6l-2.03-2.03c-.44-.44-1.16-.44-1.6,0l-1.04,1.04c-.49.49-1.23.59-1.85.28-.49-.24-.99-.45-1.51-.63-.65-.22-1.11-.82-1.11-1.51v-1.46c0-.63-.51-1.13-1.13-1.13h-2.88c-.63,0-1.13.51-1.13,1.13v1.46c0,.69-.45,1.29-1.11,1.51-.52.17-1.03.38-1.51.63-.62.31-1.36.21-1.85-.28l-1.04-1.04c-.44-.44-1.16-.44-1.6,0l-2.03,2.03c-.44.44-.44,1.16,0,1.6l1.04,1.04c.49.49.59,1.23.28,1.85-.24.49-.45.99-.63,1.51-.22.65-.82,1.11-1.51,1.11h-1.46c-.63,0-1.13.51-1.13,1.13v2.88c0,.63.51,1.13,1.13,1.13h1.46c.69,0,1.29.45,1.51,1.11.17.52.38,1.03.63,1.51.31.62.21,1.36-.28,1.85l-1.04,1.04c-.44.44-.44,1.16,0,1.6l2.03,2.03c.44.44,1.16.44,1.6,0l1.04-1.04c.49-.49,1.23-.59,1.85-.28.49.24.99.45,1.51.63.65.22,1.11.82,1.11,1.51v1.46c0,.63.51,1.13,1.13,1.13h2.88c.63,0,1.13-.51,1.13-1.13v-1.46c0-.69.45-1.29,1.11-1.51.52-.17,1.03-.38,1.51-.63.62-.31,1.36-.21,1.85.28l1.04,1.04c.44.44,1.16.44,1.6,0l2.03-2.03c.44-.44.44-1.16,0-1.6l-1.04-1.04c-.49-.49-.59-1.23-.28-1.85.24-.49.45-.99.63-1.51.22-.65.82-1.11,1.51-1.11h1.46c.63,0,1.13-.51,1.13-1.13Zm-15.13,4.6c-3.34,0-6.04-2.7-6.04-6.04s2.7-6.04,6.04-6.04,6.04,2.7,6.04,6.04-2.7,6.04-6.04,6.04Z"/>
              </g>
              <path class="cls-25" d="m420.34,80.57v-2.88c0-.63-.51-1.13-1.13-1.13h-1.46c-.69,0-1.29-.45-1.51-1.11-.17-.52-.38-1.03-.63-1.51-.31-.62-.21-1.36.28-1.85l1.04-1.04c.44-.44.44-1.16,0-1.6l-2.03-2.03c-.44-.44-1.16-.44-1.6,0l-1.04,1.04c-.49.49-1.23.59-1.85.28-.49-.24-.99-.45-1.51-.63-.65-.22-1.11-.82-1.11-1.51v-1.46c0-.63-.51-1.13-1.13-1.13h-2.88c-.63,0-1.13.51-1.13,1.13v1.46c0,.69-.45,1.29-1.11,1.51-.52.17-1.03.38-1.51.63-.62.31-1.36.21-1.85-.28l-1.04-1.04c-.44-.44-1.16-.44-1.6,0l-2.03,2.03c-.44.44-.44,1.16,0,1.6l1.04,1.04c.49.49.59,1.23.28,1.85-.24.49-.45.99-.63,1.51-.22.65-.82,1.11-1.51,1.11h-1.46c-.63,0-1.13.51-1.13,1.13v2.88c0,.63.51,1.13,1.13,1.13h1.46c.69,0,1.29.45,1.51,1.11.17.52.38,1.03.63,1.51.31.62.21,1.36-.28,1.85l-1.04,1.04c-.44.44-.44,1.16,0,1.6l2.03,2.03c.44.44,1.16.44,1.6,0l1.04-1.04c.49-.49,1.23-.59,1.85-.28.49.24.99.45,1.51.63.65.22,1.11.82,1.11,1.51v1.46c0,.63.51,1.13,1.13,1.13h2.88c.63,0,1.13-.51,1.13-1.13v-1.46c0-.69.45-1.29,1.11-1.51.52-.17,1.03-.38,1.51-.63.62-.31,1.36-.21,1.85.28l1.04,1.04c.44.44,1.16.44,1.6,0l2.03-2.03c.44-.44.44-1.16,0-1.6l-1.04-1.04c-.49-.49-.59-1.23-.28-1.85.24-.49.45-.99.63-1.51.22-.65.82-1.11,1.51-1.11h1.46c.63,0,1.13-.51,1.13-1.13Zm-15.13,1.6c-1.68,0-3.04-1.36-3.04-3.04s1.36-3.04,3.04-3.04,3.04,1.36,3.04,3.04-1.36,3.04-3.04,3.04Z"/>
            </g>
          </g>
          <g>
            <path class="cls-7" d="m90.21,172.07S61.26,134.29,0,138.18c0,0,32.46,38.83,90.21,33.89Z"/>
            <path class="cls-9" d="m72.53,146.37s6.27-47.19-39.77-87.78c0,0-4.53,50.41,39.77,87.78Z"/>
            <path class="cls-9" d="m68.04,152.47s40.8-22.07,46.45-81.6c0,0-42.34,25.28-46.45,81.6Z"/>
            <g>
              <path class="cls-7" d="m77.31,149.12s-33.98-20.85-21.59-31.43c9.28-7.92-9.02-18.08-2.05-22.01,6.96-3.93,8.41-.32,5.96-10.45-2.45-10.12,5.72-12.87,8.67-23.18,2.95-10.3,17.51-6.52,16.44,8.45s3.32-.89,8.14,5.41c4.82,6.3-11.18,30.56-5.1,28.49,6.08-2.07,10.77,2.56,8.66,9.87-4.92,17.08-19.14,34.84-19.14,34.84Z"/>
              <path class="cls-12" d="m78.49,156.62c-.06-.03-.1-.08-.11-.15-2.28-11.55-5.04-26.8-6.16-42.24v-.12s-.1-.08-.1-.08c-3.51-3-6.58-6.56-9.54-9.99-.98-1.13-1.96-2.27-2.95-3.38-.06-.06-.06-.11-.02-.17.06-.08.2-.14.31-.09.03.01.05.03.07.06.97,1.09,1.93,2.2,2.89,3.31,2.74,3.17,5.57,6.45,8.76,9.3l.53.47-.05-.71c-.43-6.51-.57-13.17-.45-20.35v-.19s-.17-.08-.17-.08c-.04-.02-.06-.03-.07-.06-2.73-4.11-5.07-8.5-6.97-13.04-.03-.08-.02-.14.03-.19.07-.07.19-.09.26-.05.04.02.07.05.09.1,1.74,4.17,3.86,8.22,6.32,12.03l.51.8.02-.95c.16-6.78.55-13.79,1.2-21.42,0-.09.05-.11.06-.12.06-.03.15-.03.22,0,.09.04.13.11.12.21-.89,10.43-1.3,19.87-1.26,28.83v.57s.46-.33.46-.33c5.16-3.72,9.49-8.34,12.85-13.74.04-.06.08-.09.16-.05.07.03.13.1.15.18.02.06,0,.13-.03.19-3.49,5.6-8.01,10.36-13.42,14.15l-.15.09v.17c.05,5.04.22,9.7.54,14.26v.08s.05.07.05.07c.04.06.04.12,0,.19l-.04.07v.08c.3,4.03.72,8.25,1.31,12.92l.1.76.43-.64c4.09-6,8.55-11.81,13.25-17.27.07-.08.15-.1.24-.05.07.03.12.1.13.16,0,.03,0,.07-.05.13-4.96,5.76-9.62,11.87-13.87,18.17l-.06.09v.11c1.08,8.17,2.56,16.99,4.69,27.75.02.1-.02.13-.04.14-.07.05-.18.06-.27.02h0Z"/>
            </g>
            <g>
              <path class="cls-15" d="m81.9,150.44s-39.07,15.01-39.97-2.06c-.68-12.79-20.83-4.03-19.66-12.33s5.1-7.22-4.91-11.63c-10.01-4.42-7.08-12.99-13.78-22.02-6.71-9.03,5.74-18.75,17.54-8.31,11.8,10.44,1.37-3.34,9.71-3.33,8.33,0,18.34,28.83,20.5,22.43,2.16-6.39,9.01-7.34,13.75-.92,11.1,15,16.82,38.19,16.82,38.19Z"/>
              <path class="cls-12" d="m88.9,154.24c-.06.03-.13.03-.2,0-11.09-5.47-25.56-12.9-39.14-21.83l-.11-.07-.13.03c-4.74,1.01-9.66,1.3-14.42,1.57-1.57.09-3.14.18-4.7.3-.09,0-.13-.02-.15-.1-.03-.11.01-.26.12-.31.03-.01.06-.02.09-.02,1.53-.11,3.07-.2,4.6-.29,4.39-.26,8.93-.53,13.34-1.37l.73-.14-.62-.41c-5.7-3.8-11.34-7.93-17.24-12.61l-.16-.12s-.18.09-.18.09c-.04.02-.06.02-.1.02-5.17-.35-10.32-1.2-15.32-2.52-.09-.02-.13-.07-.14-.15-.01-.1.05-.22.13-.25.04-.02.08-.02.14,0,4.58,1.21,9.31,2.02,14.06,2.41l.99.08-.78-.62c-5.55-4.46-11.14-9.26-17.09-14.67-.07-.06-.06-.11-.06-.13,0-.07.07-.14.15-.18.09-.04.18-.03.25.04,8.13,7.4,15.73,13.76,23.23,19.46l.47.36.02-.59c.19-6.68-.9-13.23-3.25-19.48-.03-.07-.03-.12.06-.16.07-.04.17-.04.24,0,.07.03.11.07.14.14,2.44,6.48,3.52,13.28,3.23,20.22l-.02.18.14.1c4.23,3.18,8.23,6.01,12.23,8.65l.07.05h.09c.07,0,.13.04.16.12l.04.08.07.05c3.54,2.33,7.34,4.67,11.6,7.16l.7.41-.25-.77c-2.39-7.24-4.39-14.66-5.94-22.06-.02-.11.02-.19.12-.23.07-.04.16-.04.22-.01.03.01.06.04.08.12,1.63,7.81,3.75,15.6,6.29,23.16l.04.11.1.06c7.49,4.33,15.79,8.72,26.12,13.82.09.05.09.1.09.12,0,.09-.07.19-.16.23h0Z"/>
            </g>
          </g>
          <g>
            <path class="cls-2" d="m365.34,115.82H59.41c-2.88,0-5.21,2.33-5.21,5.21l-.63,149.18c0,2.88,2.33,5.21,5.21,5.21l306.56-2.52c2.88,0,5.21-2.33,5.21-5.21V121.03c0-2.88-2.33-5.21-5.21-5.21Z"/>
            <g>
              <rect class="cls-23" x="84.5" y="157.96" width="250.48" height="31.25" rx="4.35" ry="4.35"/>
              <path class="cls-15" d="m143.7,157.96h-54.85c-2.4,0-4.35,1.95-4.35,4.35v22.55c0,2.4,1.95,4.35,4.35,4.35h54.85c2.44,0,4.42-1.98,4.42-4.42v-22.4c0-2.44-1.98-4.42-4.42-4.42Z"/>
            </g>
            <path class="cls-9" d="m92.55,205.51h30.97c2.81,0,5.09,2.28,5.09,5.09v30.97c0,2.81-2.28,5.09-5.09,5.09h-30.97c-2.81,0-5.09-2.28-5.09-5.09v-30.97c0-2.81,2.28-5.09,5.09-5.09Z"/>
            <rect class="cls-7" x="169.15" y="205.51" width="41.16" height="41.16" rx="5.09" ry="5.09"/>
            <g>
              <path class="cls-19" d="m133.95,209.94c-.35,0-.64-.29-.64-.64s.29-.64.64-.64h27.32c.35,0,.64.29.64.64s-.29.64-.64.64h-27.32Z"/>
              <path class="cls-19" d="m133.95,216.58c-.35,0-.64-.29-.64-.64s.29-.64.64-.64h27.32c.35,0,.64.29.64.64s-.29.64-.64.64h-27.32Z"/>
              <path class="cls-19" d="m133.95,223.22c-.35,0-.64-.29-.64-.64s.29-.64.64-.64h27.32c.35,0,.64.29.64.64s-.29.64-.64.64h-27.32Z"/>
              <path class="cls-19" d="m133.95,229.86c-.35,0-.64-.29-.64-.64s.29-.64.64-.64h27.32c.35,0,.64.29.64.64s-.29.64-.64.64h-27.32Z"/>
              <path class="cls-19" d="m133.95,236.51c-.35,0-.64-.29-.64-.64s.29-.64.64-.64h27.32c.35,0,.64.29.64.64s-.29.64-.64.64h-27.32Z"/>
              <path class="cls-19" d="m133.95,243.15c-.35,0-.64-.29-.64-.64s.29-.64.64-.64h11.69c.35,0,.64.29.64.64s-.29.64-.64.64h-11.69Z"/>
            </g>
            <g>
              <path class="cls-19" d="m217.24,209.94c-.35,0-.64-.29-.64-.64s.29-.64.64-.64h27.32c.35,0,.64.29.64.64s-.29.64-.64.64h-27.32Z"/>
              <path class="cls-19" d="m217.24,216.58c-.35,0-.64-.29-.64-.64s.29-.64.64-.64h27.32c.35,0,.64.29.64.64s-.29.64-.64.64h-27.32Z"/>
              <path class="cls-19" d="m217.24,223.22c-.35,0-.64-.29-.64-.64s.29-.64.64-.64h27.32c.35,0,.64.29.64.64s-.29.64-.64.64h-27.32Z"/>
              <path class="cls-19" d="m217.24,229.86c-.35,0-.64-.29-.64-.64s.29-.64.64-.64h27.32c.35,0,.64.29.64.64s-.29.64-.64.64h-27.32Z"/>
              <path class="cls-19" d="m217.24,236.51c-.35,0-.64-.29-.64-.64s.29-.64.64-.64h27.32c.35,0,.64.29.64.64s-.29.64-.64.64h-27.32Z"/>
              <path class="cls-19" d="m217.24,243.15c-.35,0-.64-.29-.64-.64s.29-.64.64-.64h11.69c.35,0,.64.29.64.64s-.29.64-.64.64h-11.69Z"/>
            </g>
            <rect class="cls-22" x="253.14" y="205.51" width="41.16" height="41.16" rx="5.09" ry="5.09"/>
            <g>
              <path class="cls-19" d="m301.23,209.94c-.35,0-.64-.29-.64-.64s.29-.64.64-.64h27.32c.35,0,.64.29.64.64s-.29.64-.64.64h-27.32Z"/>
              <path class="cls-19" d="m301.23,216.58c-.35,0-.64-.29-.64-.64s.29-.64.64-.64h27.32c.35,0,.64.29.64.64s-.29.64-.64.64h-27.32Z"/>
              <path class="cls-19" d="m301.23,223.22c-.35,0-.64-.29-.64-.64s.29-.64.64-.64h27.32c.35,0,.64.29.64.64s-.29.64-.64.64h-27.32Z"/>
              <path class="cls-19" d="m301.23,229.86c-.35,0-.64-.29-.64-.64s.29-.64.64-.64h27.32c.35,0,.64.29.64.64s-.29.64-.64.64h-27.32Z"/>
              <path class="cls-19" d="m301.23,236.51c-.35,0-.64-.29-.64-.64s.29-.64.64-.64h27.32c.35,0,.64.29.64.64s-.29.64-.64.64h-27.32Z"/>
              <path class="cls-19" d="m301.23,243.15c-.35,0-.64-.29-.64-.64s.29-.64.64-.64h11.69c.35,0,.64.29.64.64s-.29.64-.64.64h-11.69Z"/>
            </g>
            <g>
              <path class="cls-14" d="m363.45,124.05h-8.05c-.44,0-.8.36-.8.8h0c0,.44.36.8.8.8h8.05c.44,0,.8-.36.8-.8h0c0-.44-.36-.8-.8-.8Z"/>
              <path class="cls-14" d="m363.45,127.84h-8.05c-.44,0-.8.36-.8.8h0c0,.44.36.8.8.8h8.05c.44,0,.8-.36.8-.8h0c0-.44-.36-.8-.8-.8Z"/>
              <path class="cls-14" d="m363.45,131.57h-8.05c-.44,0-.8.36-.8.8h0c0,.44.36.8.8.8h8.05c.44,0,.8-.36.8-.8h0c0-.44-.36-.8-.8-.8Z"/>
            </g>
            <g>
              <path class="cls-15" d="m73.25,128.15c0,1.96-1.59,3.54-3.54,3.54s-3.54-1.59-3.54-3.54,1.59-3.54,3.54-3.54,3.54,1.59,3.54,3.54Z"/>
              <path class="cls-22" d="m92.39,128.15c0,1.96-1.59,3.54-3.54,3.54s-3.54-1.59-3.54-3.54,1.59-3.54,3.54-3.54,3.54,1.59,3.54,3.54Z"/>
              <path class="cls-7" d="m111.96,128.15c0,1.96-1.59,3.54-3.54,3.54s-3.54-1.59-3.54-3.54,1.59-3.54,3.54-3.54,3.54,1.59,3.54,3.54Z"/>
            </g>
            <path class="cls-22" d="m200.35,230.18l-9.05-12.88c-.99-1.4-3.06-1.4-4.05,0l-9.05,12.88c-1.15,1.64.02,3.9,2.02,3.9h18.1c2,0,3.18-2.26,2.02-3.9Z"/>
            <circle class="cls-7" cx="273.5" cy="227.63" r="10.64"/>
          </g>
          <path class="cls-26" d="m429.41,278.92c0-5.57-92.98-10.08-207.68-10.08s-207.68,4.52-207.68,10.08,92.98,10.08,207.68,10.08,207.68-4.52,207.68-10.08Z"/>
          <g>
            <path class="cls-17" d="m194.97,88.67c-.35-2.4-1.65-7.66-6.14-5.83-8.77-3.39-12.69.89-13.31,6.59-.78,7.15-4.8,10.02-3.31,12.07,1.86,2.57,7.61,6.32,13.55,6.45,6.2.12,11.64-4.89,13.28-7.61,1.31-2.17-3.02-4.54-4.06-11.67Z"/>
            <g>
              <path class="cls-14" d="m224.71,124.32c-3.14-5.72-15.48-18.68-16.86-19.15-3.86-1.31-9.98-1.9-13.6-2.21-2.36-.39-8.99-.32-8.99-.32l-2.63.04c-3.4,0-12.85.42-19.54,2.69-1.38.47-14.14,13.23-17.28,18.94-.74,1.35-.8,2.98-.16,4.38l13.45,26.95,6.7-1.43-5.31-23.25c-.38-1.79.19-3.66,1.51-4.88l8.54-10.05h29.31l8.64,10.05c1.31,1.22,1.89,3.09,1.51,4.88l-5.31,23.25,6.82.96,13.33-26.48c.64-1.4.58-3.04-.16-4.38Z"/>
              <path class="cls-5" d="m165.19,154.35l2.91,2.51c.39.33.19.99-.31,1.03l-1.23.1.81,2.17c.84,2.26-3.86,5.71-5.8,1.25l-1.98-5.86,5.61-1.19Z"/>
              <path class="cls-5" d="m205.46,154.33l-3.01,2.54c-.39.33-.19.99.31,1.03l1.23.1-.81,2.17c-.84,2.26,3.86,5.71,5.8,1.25l2.08-6.31-5.6-.77Z"/>
            </g>
            <g>
              <path class="cls-5" d="m192.91,91.8l.11,5.44c.04,2.02-.75,3.96-2.19,5.38-.24.22-.47.45-.71.69-2.49,2.44-6.45,2.52-9.04.18l-.73-.66c-1.5-1.35-2.37-3.25-2.41-5.27l-.11-5.45s7.66-.07,10.59-3.71c0,0,1.48,2.81,4.5,3.4Z"/>
              <path class="cls-5" d="m192.91,91.8l.11,5.44c.04,2.02-.75,3.96-2.19,5.38-.24.22-.47.45-.71.69-2.49,2.44-6.45,2.52-9.04.18l-.73-.66c-1.5-1.35-2.37-3.25-2.41-5.27l-.11-5.45s7.59-.07,10.52-3.7c0,0,1.55,2.81,4.57,3.4Z"/>
              <path class="cls-5" d="m179.83,98.59c1.41-2.37-1.1-4.78-3.41-3.28-.18.12-.34.28-.45.46-1.42,2.37,1.1,4.79,3.41,3.28.18-.12.34-.28.45-.46Z"/>
              <path class="cls-5" d="m194.85,98.28c1.38-2.31-.98-4.67-3.25-3.38-.3.17-.55.43-.7.73-1.2,2.31,1.25,4.58,3.51,3.11.18-.12.34-.28.45-.46Z"/>
            </g>
            <path class="cls-5" d="m189.81,103.85c0-2.38-1.91-4.31-4.27-4.31s-4.27,1.93-4.27,4.31,1.91,4.81,4.27,4.81,4.27-2.43,4.27-4.81Z"/>
            <path class="cls-16" d="m181.28,103.65c0,.07-.02.13-.02.2,0,.17,2.22,2.39,4.39,2.39,2.1,0,4.16-2.23,4.16-2.39,0-.08-.02-.16-.02-.25-2.43,2.08-6.03,2.11-8.5.05Z"/>
            <path class="cls-7" d="m165.83,154.22l-5.31-23.25c-.38-1.79.19-3.66,1.51-4.88l8.54-10.05s1.89-3.25.95-2.83c-.95.42-13.55,11.29-14.71,13.92-.88,2,4.1,19.46,6.52,27.63l2.51-.53Z"/>
            <path class="cls-7" d="m207.86,105.17c-.23-.08-.46-.15-.7-.22,2.44,2.87,17.26,20.51,15.62,24.17-1.48,3.3-10.73,20.06-13.57,25.74l2.33.33,13.33-26.48c.64-1.4.58-3.04-.16-4.38-3.14-5.72-15.48-18.68-16.86-19.15Z"/>
          </g>
          <g>
            <g>
              <path class="cls-22" d="m84.44,236.06l.76,2.14,11.34-1.16s12.5,15.93,17.68,21.35c.54.56,1.15,1.24,1.77,2,3.3-8,9.99-33.21,3.19-35.21-10.04-2.97-34.75,10.86-34.75,10.86Z"/>
              <path class="cls-27" d="m107.16,250.26c2.69,3.24,5.3,6.3,7.06,8.15.54.56,1.15,1.24,1.77,2,2.06-4.98,5.43-16.63,6.03-25.2-2.27.33-9.91,9.1-14.86,15.04Z"/>
            </g>
            <g>
              <path class="cls-18" d="m96.54,237.05s12.5,15.93,17.68,21.36c5.19,5.43,17.04,21.49-14.82,20.25-31.86-1.24-46.33-6.13-46.33-6.13l-.66-6.92,33.34-3.54s-20.83-2.43-18.28-22.06l29.06-2.96Z"/>
              <path class="cls-25" d="m97.14,239.51l.57-.99c3.22,4.07,12.29,15.46,16.52,19.88,2.04,2.14,5.11,5.92,6.15,9.64-2.44-5.67-9.94-10.97-16.32-17.2-8.25-8.04-6.91-11.35-6.91-11.35Z"/>
              <path class="cls-22" d="m46.65,267.06s-.1,0-.29.02c-1.14.09-4.29.26-4.93,1.68-.74,1.65-1,9.83,4.35,10.08,5.35.25-.99-4.02.83-5.78l.03-5.99Z"/>
              <path class="cls-22" d="m52.41,265.62l33.34-3.54s3.62,1.56,14.82,6.01c6.8,2.7,13.88,5.45,17.78,7.25-2.84,2.3-8.58,3.73-18.96,3.33-31.86-1.24-46.33-6.13-46.33-6.13l-.66-6.92Z"/>
              <path class="cls-4" d="m53.07,272.54s-4.03-1.69-6.17.58c-3.08,3.26-.25-6.05-.25-6.05l5.76-1.44.66,6.92Z"/>
            </g>
            <g>
              <path class="cls-2" d="m128.35,184.08l-9.7-7.99c-.33-.27-.43-.74-.24-1.12,1.71-3.48.74-7.85-2.67-10.21-3.12-2.16-7.43-1.82-10.17.8-.54.52-.99,1.09-1.36,1.7-2.02,3.36-1.34,7.79,1.76,10.37,2.92,2.43,7.05,2.45,9.98.28.09-.07.19-.12.3-.15.29-.08.61-.02.85.18l9.7,7.99c.26.21.57.3.88.27.31-.03.6-.17.81-.43.43-.51.36-1.27-.15-1.69Zm-12.64-8.87c-2.09,2.51-5.82,2.85-8.34.76-2.51-2.09-2.85-5.82-.76-8.34s5.82-2.85,8.34-.76c2.51,2.09,2.85,5.82.76,8.34Z"/>
              <path class="cls-15" d="m114.95,166.87c-2.51-2.09-6.24-1.75-8.34.76s-1.75,6.24.76,8.34c2.51,2.09,6.24,1.75,8.34-.76,2.09-2.51,1.75-6.24-.76-8.34Z"/>
            </g>
            <path class="cls-4" d="m123.17,179.3c-.86-.12-1.82.56-2.66,1.4-.24-.82-.68-2.03-1.12-2.22-.68-.28-1.48,5.34-1.48,5.34l.48-.41c-.08.12-.12.19-.12.19l4.72,2.45c3.01-4.16,2.32-6.46.18-6.76Z"/>
            <path class="cls-15" d="m67.49,221.97c.94-9.71,2.34-20.09,4.15-22.88.91-1.41,1.73-2.39,2.74-3.04h0s-8.78,5.59-12.41,14.23c-1.75,4.2,1.6,8.43,5.53,11.68Z"/>
            <g>
              <path class="cls-4" d="m91.42,195.67l-.3-3.82c1.21-.19,2.35-.74,3.24-1.67,2.38-2.47,2.34-7.13.2-9.77-1.98.6-4.5.19-4.59,1.27-.15,1.72-.31,3.1-.31,3.1-1.64-1.03-3.36-.88-3.13,1.31.09.88.71,2.28,1.36,2.39,0,0,.49,3.72-3.18,5.17h0s0,1.32,0,1.32l6.73.71Z"/>
              <path class="cls-22" d="m78.32,182.81c1.61-6.63,4.21-10.38,11.29-10.55,6.45-.16,7.31,5.21,7.31,5.21-.2,4.65-6.8,2.45-6.95,4.21-.14,1.72-.31,3.1-.31,3.1-1.64-1.03-3.36-.88-3.13,1.31.09.88.72,2.28,1.36,2.39,0,0,.49,3.72-3.18,5.17,0,0-7.99-4.23-6.38-10.84Z"/>
              <path class="cls-6" d="m78.32,182.81c1.61-6.63,4.21-10.38,11.29-10.55,4.28-.11,6.1,2.22,6.84,3.8-3.15-2.98-10.03-4.78-14.35,2.15-3.73,5.99-1.38,13.23,5.53,12.44-.36,1.08-1.16,2.31-2.93,3,0,0-7.99-4.23-6.38-10.84Z"/>
              <path class="cls-24" d="m89.65,193.07c-.61-.38-1.3-2.32-1.3-2.32.72.84,2.77,1.1,2.77,1.1l.3,3.82-1.51-.16c.04-1.2,0-2.28-.26-2.45Z"/>
            </g>
            <path class="cls-15" d="m66.04,240.85s1.97-36.16,5.59-41.76c1.51-2.34,2.78-3.49,5.06-3.95,1.42-.29,6.56-.45,8.01-.32,3.15.3,11.04,1.34,12.94,2.12,2.63,1.07,13.1,10.18,13.1,10.18l7.03-24.05,5.8,2.16s-5.66,35.05-10.19,35.14c-4.53.08-16.12-6.38-16.12-6.38,0,0-.87,22.05,3.41,26.08,0,0-18.1,8.35-34.65.77Z"/>
            <path class="cls-8" d="m71.67,198.06c1.59-1.29,2.7-2.01,2.7-2.01h0c-1.01.66-1.83,1.64-2.74,3.05-1.81,2.79-3.21,13.17-4.15,22.88-.96-.8-1.89-1.66-2.72-2.56.43-5.78,1.89-15.98,6.9-21.36Z"/>
            <path class="cls-1" d="m90.8,211.3c-.62-1.24,6.49,2.69,6.49,2.69,0,0-.87,22.05,3.41,26.08,0,0-1.26.58-3.42,1.3-2.47-7.37-1.91-17.33-2.36-20.79-.62-4.74-3.51-8.04-4.13-9.28Z"/>
          </g>
          <g>
            <g>
              <path class="cls-4" d="m331.51,274.46c0,.34-.03.72-.07,1.12-.14,1.25-1.45,1.94-1.75,2.08.17.01.32.05.44.1,2.15.94,3.39,1.18,5.48.29.16-.07.33-.07.48-.02-.08-1.05-.28-2.5-.45-3.57h-4.14Z"/>
              <path class="cls-25" d="m336.57,281.28c.05-.89.03-1.89,0-2.64-.02-.47-.51-.78-.94-.59-2.1.9-3.33.66-5.49-.28-1.66-.72-7.02,2.27-8.34,3.15,0,0-.01,0-.02.01-.68.46-.34,1.53.48,1.53h13.07c.66,0,1.2-.51,1.23-1.17Z"/>
            </g>
            <g>
              <path class="cls-4" d="m353.16,273.66c0,.34-.03.72-.07,1.12-.14,1.25-1.45,1.94-1.75,2.08.17.01.32.05.44.1,2.15.94,3.39,1.18,5.48.29.16-.07.33-.07.48-.02-.08-1.05-.28-2.5-.45-3.57h-4.14Z"/>
              <path class="cls-25" d="m358.21,280.48c.05-.89.03-1.89,0-2.64-.02-.47-.51-.78-.94-.59-2.1.9-3.33.66-5.49-.28-1.66-.72-7.02,2.27-8.34,3.15,0,0-.01,0-.02.01-.68.46-.34,1.53.48,1.53h13.07c.66,0,1.2-.51,1.23-1.17Z"/>
            </g>
            <path class="cls-22" d="m354.16,198.27c.02,1.83,1.3,6.81,1.3,12.38,0,10.69-5.44,25.03-5.44,25.03l9.08,38.57-7.68.23-17.01-37.74,1.23-40.37,18.52,1.89Z"/>
            <path class="cls-25" d="m348.05,196.1s-1.21,12.57-3.77,21.83c-2.14,7.74-17.62,19.49-17.62,19.49l10.05,37.55h-6.28l-22.46-36.48c-.56-1.56-.48-3.29.24-4.78l21.44-40.92,18.38,3.32Z"/>
            <path class="cls-4" d="m295.07,189.35h-8.06s.4,4.83,8.78,4.83l-.73-4.83Z"/>
            <path class="cls-4" d="m338.39,148.44c.06-.4.2-1.49.13-2.11-.25-2.49-1.74-2.93-3.46-1.39,0,0-1.56-.97-2.41-2.9-.51-1.15-2.65-.27-4.33-.6-1.45,3.52-.12,8.36,2.93,10.62,1.24.92,2.39,1.03,3.86,1.02l.41,6.22,7.55-2.01-.11-3.66c-2.9.09-4.99-2.4-4.58-5.18Z"/>
            <path class="cls-11" d="m332.53,274.97c-1.59-2.7-21.31-36.3-18.4-40.39,3.03-4.27,16.55-30.79,16.55-30.79l-3.2-4.09s-.97.79-2.5,2.06l-16.74,31.95c-.72,1.5-.8,3.22-.24,4.78l22.46,36.48h2.08Z"/>
            <path class="cls-15" d="m329.91,165.91c.4-7.68,12.35-8.28,13.64-8.3,1.71-.02,3.31.89,4.41,2.1,1.92,2.13,5.55,6.78,4.39,13.35-2.99,16.83,3.2,27.56,3.99,32.84-11.11,4.5-34.64-1.08-34.64-1.08l7.18-27.35,1.03-11.56Z"/>
            <path class="cls-15" d="m321,184.26s7.31-26.53,16.64-25c10.32,1.69-6.67,34.61-6.67,34.61l-35.23.71-.71-5.61,25.98-4.72Z"/>
            <path class="cls-8" d="m336.27,192.98c-1.73,5.22-7.47,4.8-7.47,4.8l-3.2,7.85c-2.41-.45-3.89-.8-3.89-.8l2.84-10.83,6.42-.13s11.82-22.91,9.75-31.49c.37.74,3.18,7.63-4.44,30.59Z"/>
            <path class="cls-22" d="m346.24,175.31c-11.92-.61-7.9-23.82-7.76-28.32.08-2.5-1.7-3.6-3.42-2.06,0,0-1.55-.97-2.41-2.9-.51-1.15-3.17-.27-4.85-.6,3.4-13.72,19.51-13.08,26.63,5.49,6.14,16.02,10.85,29.36-8.19,28.38Z"/>
            <path class="cls-24" d="m336.14,154.34c.3-.3,1.57-2.8,1.57-2.8-.63.61-1.8,1.18-2.33,1.42-.16.08-.27.12-.27.12l.41,6.22.85-.23c-.19-1.89-.42-4.54-.23-4.73Z"/>
            <path class="cls-1" d="m327.65,172.47c1.56-7.32,6.38-11.94,7.57-12.99-8.14,2.74-14.22,24.78-14.22,24.78l-25.98,4.72,29.07-1.73s1.78-6.41,3.56-14.77Z"/>
            <path class="cls-27" d="m340.82,135.45c8.66,3.89,13.63,17.97,11.26,39.61,12.06-2,7.77-14.03,2.36-28.14-7.12-18.58-23.22-19.22-26.63-5.49,0,0,4.29-9.9,13.01-5.98Z"/>
          </g>
          <g>
            <g>
              <g>
                <path class="cls-15" d="m415.56,202.32c-.56,3.06-10.61,20.78-16.82,32.63-4.86,9.28-3.82,18.09-3.14,21.49h1.19c-.71-4.1-1-3.47.03-9.86,1.13-7.01,12.09-11.88,18.97-25.4,6.89-13.51.34-21.92-.23-18.87Z"/>
                <path class="cls-15" d="m392.46,249.17c.35,3.36.63,5.68.75,7.27h.6c.2-5.7.55-15.55.32-22.13-.34-9.69,2.32-13.68,3.82-30.02,1.5-16.34-2.73-39.46-2.73-39.46,0,0-10.15,20.75-6.61,43.85,3.54,23.1,2.3,25.67,3.84,40.49Z"/>
                <path class="cls-15" d="m389.59,245.91c.07,3.66.69,8.14,1.07,10.53h.64c-.11-1.69-.23-4.8-.36-10.32-.39-16.73-2.1-16.54-5-27.73-2.89-11.19-7.56-15.84-12.39-21.47,0,0-4.99,8.04,2.06,19.99,7.05,11.95,9.84,12.78,11.5,18.66,1.66,5.88,2.37,5.09,2.48,10.34Z"/>
                <path class="cls-15" d="m387.94,256.44h.7c.34-2.29.37-5.71-1.51-8.9-3.21-5.44-5.72-12.62-10.67-17.36-6.77-6.48-11.48-22.67-11.48-22.67,0,0-3.56,14.38,3.33,25.78,6.89,11.4,12.65,13.55,15.72,15.42,3.29,1.99,3.93,5.33,3.91,7.73Z"/>
              </g>
              <path class="cls-7" d="m393.25,256.44h.11l.53-2.22c.2-5.8.45-14.12.24-19.91-.34-9.69,2.32-13.68,3.82-30.02,1.5-16.34-2.73-39.46-2.73-39.46,0,0-3.86,32.22-2.8,47,.99,13.67.84,40.65.81,44.61Z"/>
              <path class="cls-7" d="m415.94,201.72c.1,4.35-.25,19.13-8.95,27-10.09,9.11-13.3,19.17-10.3,27.72h.09c-.71-4.1-1-3.47.03-9.86,1.13-7.01,12.09-11.88,18.97-25.4,6.13-12.02,1.63-19.99.16-19.46Z"/>
              <path class="cls-7" d="m390.96,256.44h.34c-.11-1.69-.23-4.8-.36-10.32-.39-16.73-2.1-16.54-5-27.73-2.89-11.19-7.56-15.84-12.39-21.47,0,0-.2,11.12,7.01,21.81,7.21,10.69,9.21,18.57,9.41,21.53.17,2.44.78,12.67,1,16.18Z"/>
              <path class="cls-7" d="m388.09,256.44h.55c.34-2.29.37-5.71-1.51-8.9-3.21-5.44-5.72-12.62-10.67-17.36-6.77-6.48-11.48-22.67-11.48-22.67,0,0,.22,18.33,5.56,23.67,5.34,5.35,5.21,3.8,9.35,9.08,4.14,5.28,5.41,6.75,7.01,9.99,1.03,2.07,1.2,4.62,1.2,6.19Z"/>
            </g>
            <path class="cls-23" d="m401.24,253.49h-18.72c-1.91,0-3.35,1.74-2.99,3.61l3.67,19.19c.27,1.43,1.53,2.47,2.99,2.47h11.38c1.46,0,2.71-1.04,2.99-2.47l3.67-19.19c.36-1.88-1.08-3.61-2.99-3.61Z"/>
            <path class="cls-19" d="m404.19,255.8c-.32-1.31-1.5-2.31-2.95-2.31h-18.72c-1.45,0-2.63,1.01-2.95,2.31h24.62Z"/>
            <path class="cls-19" d="m401.24,253.49h-4.15c1.91,0,3.35,1.74,2.99,3.61l-3.67,19.19c-.27,1.43-1.53,2.47-2.99,2.47h4.15c1.46,0,2.71-1.04,2.99-2.47l3.67-19.19c.36-1.88-1.08-3.61-2.99-3.61Z"/>
          </g>
        </g>
      </g>
    </g>
  </g>
</svg>